# OBJ generated by ONSHAPE BY PTC INC, 1.199 Units = meters
mtllib BoundingCube.mtl
g Part 2
v 0.202 0.239019 0.202 
v 0.202 -0.164981 0.202 
v 0.202 -0.164981 -0.202 
v 0.202 0.239019 -0.202 
v 0.2 -0.164981 0.202 
v 0.2 -0.164981 -0.202 
v 0.2 0.239019 -0.202 
v 0.2 0.239019 0.202 
vn 1 0 1.38778e-16 
vn 0 -1 0 
vn 0 1 0 
vn 0 0 1 
vn 0 0 -1 
vn -1 0 -1.38778e-16 
usemtl 0.615686_0.811765_0.929412_0.000000_0.000000
o mesh0
f 1//1 2//1 3//1 
f 3//1 4//1 1//1 
o mesh1
f 3//2 2//2 5//2 
f 5//2 6//2 3//2 
o mesh2
f 4//3 7//3 8//3 
f 8//3 1//3 4//3 
o mesh3
f 2//4 1//4 8//4 
f 8//4 5//4 2//4 
o mesh4
f 3//5 6//5 7//5 
f 7//5 4//5 3//5 
o mesh5
f 5//6 8//6 7//6 
f 7//6 6//6 5//6 
g Part 5
v 0.2 0.237019 0.202 
v 0.2 0.237019 0.2 
v -0.2 0.237019 0.2 
v -0.2 0.237019 0.202 
v 0.2 -0.162981 0.2 
v -0.2 -0.162981 0.2 
v -0.2 -0.162981 0.202 
v 0.2 -0.162981 0.202 
vn 0 1 0 
vn 0 0 -1 
vn -1 0 -1.38778e-16 
vn 0 0 1 
vn 1 0 1.38778e-16 
vn 0 -1 0 
o mesh6
f 9//7 10//7 11//7 
f 11//7 12//7 9//7 
o mesh7
f 10//8 13//8 14//8 
f 14//8 11//8 10//8 
o mesh8
f 12//9 11//9 14//9 
f 14//9 15//9 12//9 
o mesh9
f 9//10 12//10 15//10 
f 15//10 16//10 9//10 
o mesh10
f 9//11 16//11 13//11 
f 13//11 10//11 9//11 
o mesh11
f 14//12 13//12 16//12 
f 16//12 15//12 14//12 
g Part 1
v -0.202 -0.164981 -0.202 
v -0.202 0.239019 -0.202 
v -0.2 0.239019 -0.202 
v -0.2 -0.164981 -0.202 
v -0.202 0.239019 0.202 
v -0.2 0.239019 0.202 
v -0.202 -0.164981 0.202 
v -0.2 -0.164981 0.202 
vn 0 0 -1 
vn 0 1 0 
vn 0 0 1 
vn 0 -1 0 
vn -1 0 -1.38778e-16 
vn 1 0 1.38778e-16 
o mesh12
f 17//13 18//13 19//13 
f 19//13 20//13 17//13 
o mesh13
f 18//14 21//14 22//14 
f 22//14 19//14 18//14 
o mesh14
f 23//15 24//15 22//15 
f 22//15 21//15 23//15 
o mesh15
f 17//16 20//16 24//16 
f 24//16 23//16 17//16 
o mesh16
f 18//17 17//17 23//17 
f 23//17 21//17 18//17 
o mesh17
f 20//18 19//18 22//18 
f 22//18 24//18 20//18 
g Part 3
v 0.2 0.237019 -0.202 
v 0.2 0.237019 0.202 
v -0.2 0.237019 0.202 
v -0.2 0.237019 -0.202 
v -0.2 0.239019 0.202 
v -0.2 0.239019 -0.202 
v 0.2 0.239019 -0.202 
v 0.2 0.239019 0.202 
vn 0 -1 0 
vn -1 0 -1.38778e-16 
vn 0 0 -1 
vn 0 0 1 
vn 0 1 0 
vn 1 0 1.38778e-16 
o mesh18
f 25//19 26//19 27//19 
f 27//19 28//19 25//19 
o mesh19
f 29//20 30//20 28//20 
f 28//20 27//20 29//20 
o mesh20
f 31//21 25//21 28//21 
f 28//21 30//21 31//21 
o mesh21
f 32//22 29//22 27//22 
f 27//22 26//22 32//22 
o mesh22
f 30//23 29//23 32//23 
f 32//23 31//23 30//23 
o mesh23
f 32//24 26//24 25//24 
f 25//24 31//24 32//24 
g Part 6
v 0.2 -0.164981 0.202 
v 0.2 -0.164981 -0.202 
v 0.2 -0.162981 -0.202 
v 0.2 -0.162981 0.202 
v -0.2 -0.162981 0.202 
v -0.2 -0.164981 0.202 
v -0.2 -0.164981 -0.202 
v -0.2 -0.162981 -0.202 
vn 1 0 1.38778e-16 
vn 0 0 1 
vn 0 0 -1 
vn -1 0 -1.38778e-16 
vn 0 -1 0 
vn 0 1 0 
o mesh24
f 33//25 34//25 35//25 
f 35//25 36//25 33//25 
o mesh25
f 33//26 36//26 37//26 
f 37//26 38//26 33//26 
o mesh26
f 34//27 39//27 40//27 
f 40//27 35//27 34//27 
o mesh27
f 38//28 37//28 40//28 
f 40//28 39//28 38//28 
o mesh28
f 39//29 34//29 33//29 
f 33//29 38//29 39//29 
o mesh29
f 40//30 37//30 36//30 
f 36//30 35//30 40//30 
g Part 4
v 0.2 0.237019 -0.202 
v -0.2 0.237019 -0.202 
v -0.2 0.237019 -0.2 
v 0.2 0.237019 -0.2 
v -0.2 -0.162981 -0.2 
v 0.2 -0.162981 -0.2 
v -0.2 -0.162981 -0.202 
v 0.2 -0.162981 -0.202 
vn 0 1 0 
vn 0 0 1 
vn -1 0 -1.38778e-16 
vn 0 0 -1 
vn 1 0 1.38778e-16 
vn 0 -1 0 
o mesh30
f 41//31 42//31 43//31 
f 43//31 44//31 41//31 
o mesh31
f 43//32 45//32 46//32 
f 46//32 44//32 43//32 
o mesh32
f 43//33 42//33 47//33 
f 47//33 45//33 43//33 
o mesh33
f 41//34 48//34 47//34 
f 47//34 42//34 41//34 
o mesh34
f 44//35 46//35 48//35 
f 48//35 41//35 44//35 
o mesh35
f 47//36 48//36 46//36 
f 46//36 45//36 47//36 
